<?xml version="1.0" encoding="utf-8"?>
<!-- Generator: Adobe Illustrator 16.0.0, SVG Export Plug-In . SVG Version: 6.00 Build 0)  -->
<!DOCTYPE svg PUBLIC "-//W3C//DTD SVG 1.1//EN" "http://www.w3.org/Graphics/SVG/1.1/DTD/svg11.dtd">
<svg version="1.1" id="Layer_1" xmlns="http://www.w3.org/2000/svg" xmlns:xlink="http://www.w3.org/1999/xlink" x="0px" y="0px"
	 width="189.875px" height="82.375px" viewBox="0 0 189.875 82.375" enable-background="new 0 0 189.875 82.375"
	 xml:space="preserve">
<g>
	<g>
		<g>
			<g>
				<g>
					<g>
						
							<linearGradient id="SVGID_1_" gradientUnits="userSpaceOnUse" x1="345.9629" y1="970.0039" x2="359.7057" y2="975.2793" gradientTransform="matrix(3.6458 0 0 -3.6458 -1266.4192 3597.2532)">
							<stop  offset="0.0714" style="stop-color:#FFFFFF"/>
							<stop  offset="0.146" style="stop-color:#F5F5FA"/>
							<stop  offset="0.2739" style="stop-color:#DAD9EB"/>
							<stop  offset="0.4394" style="stop-color:#AEADD4"/>
							<stop  offset="0.6339" style="stop-color:#7270B4"/>
							<stop  offset="0.8176" style="stop-color:#333092"/>
						</linearGradient>
						<polygon fill="url(#SVGID_1_)" points="3.199,82.396 55.929,82.396 30.007,2.267 						"/>
						<path fill="#333092" d="M23.108,6.209C25.079,4.337,27.74,2.069,30.401,0c-0.69,0.887-1.38,1.774-1.873,2.563
							c-0.493,0.789-0.888,1.281-1.183,1.873c-0.295,0.493-0.492,0.886-0.788,1.38c-0.197,0.394-0.395,0.887-0.69,1.379
							c-0.197,0.591-0.493,1.183-0.789,2.07c-0.295,0.887-0.689,2.168-1.083,3.351l5.026,2.464l-2.365,6.406l1.281,0.985
							l-1.675,0.591l-0.099,1.873l1.38-0.591l-1.676,2.268l0,0c0,0.788,0,1.576,0,2.266s0.099,1.183,0.198,1.676
							c0.098,0.493,0.098,0.887,0.197,1.281c0.099,0.395,0.197,0.789,0.296,1.282c0.099,0.493,0.296,0.986,0.591,1.774
							c0.295,0.69,0.69,1.675,1.084,2.563l-9.461,0.395l-0.493,1.577l9.461-0.788l0,0c-0.591,0.887-1.182,1.774-1.675,2.563
							c-0.494,0.69-0.789,1.281-1.084,1.774c-0.296,0.493-0.493,0.887-0.689,1.281c-0.198,0.394-0.395,0.789-0.69,1.183
							c-0.197,0.394-0.493,0.887-0.789,1.577c-0.295,0.591-0.689,1.38-0.985,2.069l4.435,3.45l-6.013,0.689l0,0
							c-0.689,1.873-1.182,3.745-1.478,5.125c-0.296,1.479-0.296,2.464-0.296,3.351s0.099,1.578,0.197,2.168
							c0.099,0.592,0.296,1.084,0.394,1.577c0.099,0.394,0.296,0.789,0.493,1.084c0.197,0.296,0.493,0.69,0.788,1.083
							c0.296,0.395,0.69,0.789,1.183,1.282c0.493,0.493,1.084,0.985,2.07,1.479c0.985,0.591,2.266,1.183,3.646,1.774
							c-3.746,0.296-7.392,0.394-10.053,0.296c-2.661-0.099-4.238-0.395-5.52-0.592c-1.281-0.295-2.168-0.493-2.957-0.887
							c-0.493-0.197-0.887-0.395-1.281-0.591c-0.887-0.493-1.676-0.986-2.464-1.873c-0.395-0.395-0.789-0.887-1.183-1.379
							c-0.394-0.591-0.788-1.183-1.183-2.07c-0.395-0.887-0.788-1.971-1.183-3.844c-0.394-1.873-0.887-4.435-0.986-6.504
							c-0.197-2.07-0.098-3.647,0.099-4.929c0.098-1.281,0.394-2.365,0.591-3.351c0.295-0.985,0.591-1.774,0.985-2.661
							c0.493-0.985,1.084-2.07,2.168-3.548c1.085-1.479,2.76-3.252,4.633-5.027l-1.479-2.069l0,0
							c0.985-3.154,2.07-6.308,3.055-8.673c0.986-2.464,1.873-4.14,2.661-5.618c0.789-1.479,1.578-2.661,2.366-3.844
							c0.887-1.183,1.774-2.464,3.056-3.844C19.658,9.659,21.038,8.082,23.108,6.209L23.108,6.209z M22.221,7.885
							c-1.774,1.872-3.056,3.351-4.042,4.73c-0.985,1.281-1.872,2.464-2.563,3.548c-0.788,1.084-1.479,2.267-2.267,3.647
							c-0.788,1.379-1.577,2.957-2.464,5.026C10,26.907,9.014,29.568,8.226,32.13c1.281-0.985,2.661-1.873,3.745-2.661
							c1.083-0.789,2.069-1.282,2.858-1.774c0.788-0.493,1.479-0.887,2.168-1.183c0.69-0.395,1.38-0.69,2.268-1.084
							c0.788-0.394,1.773-0.887,3.153-1.38c1.281-0.591,2.957-1.183,4.534-1.773c-0.789-1.084-1.479-2.267-2.07-3.154
							c-0.493-0.986-0.789-1.774-0.887-2.465c-0.198-0.689-0.296-1.379-0.296-1.971c-0.098-0.591,0-1.183,0-1.774
							c0.098-0.591,0.197-1.38,0.493-2.267c0.296-0.887,0.591-1.971,1.379-3.548c0.79-1.577,1.972-3.548,3.352-5.421
							C26.361,3.745,23.995,6.012,22.221,7.885L22.221,7.885z M13.646,32.229c-3.154,2.168-5.026,3.844-6.406,5.224
							c-1.38,1.479-2.365,2.661-3.253,3.943c-0.492,0.689-0.887,1.478-1.281,2.267c-0.395,0.788-0.69,1.676-0.985,2.759
							c-0.296,0.986-0.493,2.168-0.69,3.548c-0.197,1.38-0.296,2.859-0.099,4.83c0.197,1.971,0.689,4.436,1.281,6.899
							c0.789-0.986,1.577-1.773,2.563-2.562c0.985-0.789,1.971-1.479,3.055-2.07s2.267-1.183,3.351-1.676
							c1.183-0.493,2.266-0.985,3.548-1.38c1.282-0.395,2.661-0.887,4.336-1.182c1.675-0.395,3.646-0.592,5.618-0.789
							c-1.281-0.986-2.463-1.971-3.351-2.957c-0.887-0.887-1.38-1.675-1.873-2.365s-0.789-1.379-1.084-1.873
							c-0.295-0.591-0.395-1.183-0.591-1.675c-0.099-0.493-0.197-0.986-0.295-1.479c-0.099-0.492-0.099-0.886,0-1.478
							c0-0.493,0.098-1.183,0.295-1.873c0.197-0.69,0.493-1.577,0.887-2.661c0.493-1.084,1.084-2.267,2.267-4.14
							c1.183-1.774,3.056-4.14,5.027-6.308C21.334,27.498,16.8,30.159,13.646,32.229L13.646,32.229z"/>
					</g>
				</g>
				<path opacity="0.92" fill="#FFFFFF" stroke="#FFFFFF" stroke-width="0.8083" enable-background="new    " d="M22.221,7.885
					c-1.774,1.872-3.056,3.351-4.042,4.73c-0.985,1.281-1.872,2.464-2.563,3.548c-0.788,1.084-1.479,2.267-2.267,3.647
					c-0.788,1.379-1.577,2.957-2.464,5.026C10,26.907,9.014,29.568,8.226,32.13c1.281-0.985,2.661-1.873,3.745-2.661
					c1.083-0.789,2.069-1.282,2.858-1.774c0.788-0.493,1.479-0.887,2.168-1.183c0.69-0.395,1.38-0.69,2.268-1.084
					c0.788-0.394,1.773-0.887,3.153-1.38c1.281-0.591,2.957-1.183,4.534-1.773c-0.789-1.084-1.479-2.267-2.07-3.154
					c-0.493-0.986-0.789-1.774-0.887-2.465c-0.198-0.689-0.296-1.379-0.296-1.971c-0.098-0.591,0-1.183,0-1.774
					c0.098-0.591,0.197-1.38,0.493-2.267c0.296-0.887,0.591-1.971,1.379-3.548c0.79-1.577,1.972-3.548,3.352-5.421
					C26.361,3.745,23.995,6.012,22.221,7.885L22.221,7.885z"/>
				<path opacity="0.92" fill="#FFFFFF" stroke="#FFFFFF" stroke-width="0.8083" enable-background="new    " d="M13.646,32.229
					c-3.154,2.168-5.026,3.844-6.406,5.224c-1.38,1.479-2.365,2.661-3.253,3.943c-0.492,0.689-0.887,1.478-1.281,2.267
					c-0.395,0.788-0.69,1.676-0.985,2.759c-0.296,0.986-0.493,2.168-0.69,3.548c-0.197,1.38-0.296,2.859-0.099,4.83
					c0.197,1.971,0.689,4.436,1.281,6.899c0.789-0.986,1.577-1.773,2.563-2.562c0.985-0.789,1.971-1.479,3.055-2.07
					s2.267-1.183,3.351-1.676c1.183-0.493,2.266-0.985,3.548-1.38c1.282-0.395,2.661-0.887,4.336-1.182
					c1.675-0.395,3.646-0.592,5.618-0.789c-1.281-0.986-2.463-1.971-3.351-2.957c-0.887-0.887-1.38-1.675-1.873-2.365
					s-0.789-1.379-1.084-1.873c-0.295-0.591-0.395-1.183-0.591-1.675c-0.099-0.493-0.197-0.986-0.295-1.479
					c-0.099-0.492-0.099-0.886,0-1.478c0-0.493,0.098-1.183,0.295-1.873c0.197-0.69,0.493-1.577,0.887-2.661
					c0.493-1.084,1.084-2.267,2.267-4.14c1.183-1.774,3.056-4.14,5.027-6.308C21.334,27.498,16.8,30.159,13.646,32.229
					L13.646,32.229z"/>
			</g>
			<path fill="#FFFFFF" d="M27.543,67.513l4.14-0.394l1.479,0.788l-3.352,0.592c-0.197,0-0.295,0.197-0.295,0.395
				c0,0.197,0.197,0.296,0.395,0.296l4.14-0.789l0.493,0.296l-4.534,1.281l4.731,1.281l-0.493,0.296l-4.14-0.789
				c-0.197,0-0.395,0.099-0.395,0.296c0,0.197,0.099,0.394,0.296,0.394l3.352,0.591l-1.479,0.789l-4.14-0.394
				c-0.197,0-0.296,0.098-0.296,0.295c0,0.197,0.099,0.296,0.296,0.296l3.252,0.295h-0.098h-2.76c-0.198,0-0.296,0.099-0.296,0.296
				s0.098,0.296,0.296,0.296h1.675l-1.873,0.985c-0.197,0.098-0.197,0.296-0.098,0.394c0,0,0,0.099,0.098,0.099v0.099
				c0.099,0.098,0.296,0.197,0.395,0.098l1.675-0.887l-0.887,1.379c-0.099,0.099,0,0.296,0.099,0.395
				c0.197,0.099,0.295,0,0.394-0.099l1.379-2.267h0.099l-1.282,2.661c-0.099,0.099,0,0.296,0.197,0.395
				c0.198,0.099,0.395,0,0.395-0.099l1.773-3.449l1.479-0.789l-1.084,2.957c-0.099,0.197,0,0.395,0.197,0.395
				c0.197,0.099,0.395,0,0.493-0.197l1.379-3.746l0.493-0.295l-1.083,4.337l0,0l0,0l0,0l0,0l3.548-3.056v0.493l-2.859,2.957
				c-0.099,0.098-0.099,0.295,0,0.493c0.098,0.099,0.394,0.099,0.493,0l2.267-2.365v1.577l-2.366,3.154
				c-0.098,0.099-0.098,0.296,0.099,0.395c0.099,0.098,0.296,0.098,0.394-0.099l1.873-2.464v0.099l-1.379,2.168
				c-0.099,0.098,0,0.296,0.098,0.394c0.197,0.099,0.296,0,0.394-0.098l0.887-1.38v1.873c0,0.197,0.099,0.296,0.296,0.296h0.099
				h0.098c0.197,0,0.295-0.099,0.295-0.296v-1.873l0.887,1.38c0.099,0.098,0.295,0.197,0.395,0.098
				c0.197-0.098,0.197-0.296,0.099-0.394l-1.38-2.168v-0.099l1.873,2.464c0.099,0.099,0.296,0.197,0.395,0.099
				c0.099-0.099,0.197-0.296,0.099-0.395l-2.366-3.154v-1.577l2.267,2.365c0.099,0.099,0.395,0.099,0.493,0
				c0.099-0.099,0.197-0.295,0-0.493l-2.858-2.957V73.23l3.548,3.056l0,0l0,0l0,0l0,0l-0.887-4.337l0.492,0.295l1.38,3.746
				c0.099,0.197,0.296,0.296,0.493,0.197c0.197-0.099,0.295-0.197,0.197-0.395l-1.084-2.957l1.479,0.789l1.774,3.449
				c0.098,0.099,0.295,0.197,0.394,0.099c0.197-0.099,0.197-0.197,0.197-0.395l-1.38-2.759h0.099l1.379,2.267
				c0.099,0.098,0.296,0.197,0.395,0.098c0.197-0.098,0.197-0.296,0.099-0.394l-0.887-1.38l1.676,0.887
				c0.197,0.098,0.296,0,0.395-0.099v-0.099l0,0c0,0,0.098,0,0.098-0.098c0.099-0.099,0-0.296-0.098-0.394l-1.774-0.887h1.774
				c0.197,0,0.295-0.099,0.295-0.296s-0.099-0.296-0.295-0.296h-2.76h-0.099l3.252-0.295c0.197,0,0.295-0.198,0.295-0.296
				c0-0.197-0.197-0.295-0.295-0.295l-4.14,0.394l-1.479-0.789l3.351-0.591c0.197,0,0.296-0.197,0.296-0.394
				c0-0.197-0.197-0.296-0.394-0.296l-4.14,0.789l-0.493-0.296l4.73-1.281l0,0l0,0l0,0l-4.73-1.281l0.493-0.296l4.14,0.789
				c0.197,0,0.394-0.099,0.394-0.296c0-0.197-0.099-0.395-0.296-0.395l-3.351-0.592L44.2,67.12l4.14,0.394
				c0.197,0,0.295-0.099,0.295-0.295c0-0.197-0.098-0.296-0.295-0.296l-3.252-0.296h0.099h2.76c0.197,0,0.295-0.098,0.295-0.295
				s-0.099-0.296-0.295-0.296h-1.774l1.774-0.887c0.197-0.099,0.197-0.296,0.098-0.394c0,0,0-0.099-0.098-0.099v-0.099
				c-0.099-0.098-0.295-0.197-0.395-0.098l-1.676,0.887l0.887-1.38c0.099-0.098,0-0.295-0.099-0.394
				c-0.197-0.099-0.296,0-0.395,0.098l-1.379,2.268h-0.099l1.38-2.76c0.098-0.099,0-0.295-0.197-0.394s-0.296,0-0.394,0.099
				l-1.774,3.45l-1.479,0.789l1.084-3.056c0.099-0.197,0-0.394-0.197-0.394c-0.197-0.098-0.395,0-0.493,0.197l-1.38,3.746
				l-0.492,0.395l1.083-4.337l0,0l0,0l0,0l0,0l-3.548,3.056v-0.492l2.859-2.957c0.098-0.099,0.098-0.296,0-0.493
				c-0.099-0.099-0.394-0.099-0.493,0l-2.267,2.365v-1.577l2.366-3.155c0.099-0.098,0.099-0.295-0.099-0.394
				c-0.098-0.098-0.295-0.098-0.394,0.099l-1.873,2.464v-0.098l1.379-2.169c0.099-0.099,0-0.295-0.099-0.394
				c-0.197-0.099-0.296,0-0.394,0.098l-0.887,1.38v-1.872c0-0.198-0.099-0.296-0.295-0.296h-0.099h-0.099
				c-0.197,0-0.296,0.098-0.296,0.296v1.872l-0.986-1.38c-0.099-0.098-0.295-0.197-0.394-0.098
				c-0.197,0.098-0.197,0.295-0.099,0.394l1.38,2.169v0.098l-1.873-2.464c-0.099-0.099-0.296-0.197-0.395-0.099
				c-0.099,0.099-0.197,0.295-0.099,0.394l2.366,3.155v1.577l-2.268-2.365c-0.099-0.099-0.394-0.099-0.493,0
				c-0.098,0.099-0.197,0.295,0,0.493l2.859,2.957v0.492l-3.548-3.056l0,0l0,0l0,0l0,0l1.084,4.337l-0.493-0.296l-1.478-3.647
				c-0.099-0.197-0.296-0.295-0.493-0.197c-0.197,0.098-0.296,0.197-0.197,0.394l1.084,3.055l-1.479-0.788l-1.773-3.45
				c-0.099-0.098-0.296-0.197-0.395-0.098c-0.197-0.099-0.197,0.098-0.197,0.197l1.38,2.76h-0.098l-1.38-2.268
				c-0.098-0.098-0.295-0.197-0.394-0.098c-0.197,0.098-0.197,0.295-0.099,0.394l0.887,1.38l-1.675-0.887
				c-0.197-0.099-0.295,0-0.395,0.098v0.099l0,0l-0.099,0.099c-0.098,0.098,0,0.295,0.099,0.394l1.675,0.887h-1.675
				c-0.197,0-0.296,0.099-0.296,0.296s0.099,0.295,0.296,0.295h2.76h0.099l-3.253,0.296c-0.197,0-0.295,0.197-0.295,0.296
				C27.248,67.415,27.444,67.513,27.543,67.513z M37.597,67.612v1.676c0,0.197,0.098,0.295,0.296,0.295h0.098h0.099
				c0.197,0,0.295-0.098,0.295-0.295v-1.676l2.366-2.07L40.06,68.4l-1.577,0.789c-0.197,0.099-0.197,0.295-0.099,0.394
				c0,0,0,0.099,0.099,0.099v0.099c0.098,0.099,0.295,0.197,0.394,0.099l1.577-0.789l3.154,0.887l-3.055,0.887l-1.578-0.789
				c-0.197-0.099-0.295,0-0.394,0.098v0.099l0,0c0,0-0.098,0-0.098,0.099c-0.099,0.098,0,0.296,0.098,0.394l1.577,0.789l0.69,2.858
				l-2.366-2.07v-1.675c0-0.198-0.099-0.296-0.295-0.296h-0.099h-0.099c-0.197,0-0.296,0.098-0.296,0.296v1.675l-2.366,2.07
				l0.69-2.858l1.578-0.789c0.197-0.098,0.197-0.296,0.098-0.394c0,0,0-0.099-0.098-0.099v-0.099
				c-0.099-0.098-0.296-0.197-0.395-0.098l-1.577,0.789l-3.252-0.887l3.056-0.887l1.577,0.789c0.197,0.099,0.296,0,0.394-0.099
				v-0.099l0,0l0.099-0.099c0.099-0.098,0-0.295-0.099-0.394L35.822,68.4l-0.69-2.858L37.597,67.612z"/>
			<g>
				<g>
					
						<linearGradient id="SVGID_2_" gradientUnits="userSpaceOnUse" x1="349.6006" y1="982.0391" x2="355.2552" y2="982.0391" gradientTransform="matrix(3.6458 0 0 -3.6458 -1266.4192 3597.2532)">
						<stop  offset="0" style="stop-color:#FFFFFF"/>
						<stop  offset="0.0839" style="stop-color:#FAFDFF"/>
						<stop  offset="0.1785" style="stop-color:#EDF8FF"/>
						<stop  offset="0.2784" style="stop-color:#D6EFFF"/>
						<stop  offset="0.3818" style="stop-color:#B7E3FF"/>
						<stop  offset="0.4881" style="stop-color:#8ED4FF"/>
						<stop  offset="0.5968" style="stop-color:#5CC1FF"/>
						<stop  offset="0.7053" style="stop-color:#22ABFF"/>
						<stop  offset="0.7636" style="stop-color:#009EFF"/>
						<stop  offset="1" style="stop-color:#009EFF"/>
					</linearGradient>
					<path opacity="0.92" fill="url(#SVGID_2_)" enable-background="new    " d="M22.221,7.885c-1.774,1.872-3.056,3.351-4.042,4.73
						c-0.985,1.281-1.872,2.464-2.563,3.548c-0.788,1.084-1.479,2.267-2.267,3.647c-0.788,1.379-1.577,2.957-2.464,5.026
						C10,26.907,9.014,29.568,8.226,32.13c1.281-0.985,2.661-1.873,3.745-2.661c1.083-0.789,2.069-1.282,2.858-1.774
						c0.788-0.493,1.479-0.887,2.168-1.183c0.69-0.395,1.38-0.69,2.268-1.084c0.788-0.394,1.773-0.887,3.153-1.38
						c1.281-0.591,2.957-1.183,4.534-1.773c-0.789-1.084-1.479-2.267-2.07-3.154c-0.493-0.986-0.789-1.774-0.887-2.465
						c-0.198-0.689-0.296-1.379-0.296-1.971c-0.098-0.591,0-1.183,0-1.774c0.098-0.591,0.197-1.38,0.493-2.267
						c0.296-0.887,0.591-1.971,1.379-3.548c0.79-1.577,1.972-3.548,3.352-5.421C26.361,3.745,23.995,6.012,22.221,7.885
						L22.221,7.885z"/>
					
						<linearGradient id="SVGID_3_" gradientUnits="userSpaceOnUse" x1="347.5869" y1="974.7539" x2="354.5211" y2="974.7539" gradientTransform="matrix(3.6458 0 0 -3.6458 -1266.4192 3597.2532)">
						<stop  offset="0" style="stop-color:#FFFFFF"/>
						<stop  offset="0.0839" style="stop-color:#FAFDFF"/>
						<stop  offset="0.1785" style="stop-color:#EDF8FF"/>
						<stop  offset="0.2784" style="stop-color:#D6EFFF"/>
						<stop  offset="0.3818" style="stop-color:#B7E3FF"/>
						<stop  offset="0.4881" style="stop-color:#8ED4FF"/>
						<stop  offset="0.5968" style="stop-color:#5CC1FF"/>
						<stop  offset="0.7053" style="stop-color:#22ABFF"/>
						<stop  offset="0.7636" style="stop-color:#009EFF"/>
						<stop  offset="1" style="stop-color:#009EFF"/>
					</linearGradient>
					<path opacity="0.92" fill="url(#SVGID_3_)" enable-background="new    " d="M13.646,32.229
						c-3.154,2.168-5.026,3.844-6.406,5.224c-1.38,1.479-2.365,2.661-3.253,3.943c-0.492,0.689-0.887,1.478-1.281,2.267
						c-0.395,0.788-0.69,1.676-0.985,2.759c-0.296,0.986-0.493,2.168-0.69,3.548c-0.197,1.38-0.296,2.859-0.099,4.83
						c0.197,1.971,0.689,4.436,1.281,6.899c0.789-0.986,1.577-1.773,2.563-2.562c0.985-0.789,1.971-1.479,3.055-2.07
						s2.267-1.183,3.351-1.676c1.183-0.493,2.266-0.985,3.548-1.38c1.282-0.395,2.661-0.887,4.336-1.182
						c1.675-0.395,3.646-0.592,5.618-0.789c-1.281-0.986-2.463-1.971-3.351-2.957c-0.887-0.887-1.38-1.675-1.873-2.365
						s-0.789-1.379-1.084-1.873c-0.295-0.591-0.395-1.183-0.591-1.675c-0.099-0.493-0.197-0.986-0.295-1.479
						c-0.099-0.492-0.099-0.886,0-1.478c0-0.493,0.098-1.183,0.295-1.873c0.197-0.69,0.493-1.577,0.887-2.661
						c0.493-1.084,1.084-2.267,2.267-4.14c1.183-1.774,3.056-4.14,5.027-6.308C21.334,27.498,16.8,30.159,13.646,32.229
						L13.646,32.229z"/>
				</g>
			</g>
		</g>
	</g>
	<path fill="#333092" d="M51.395,57.46v-0.985c0.493-0.099,0.887-0.395,0.986-0.789c0.098-0.197,0.197-0.591,0.197-0.985
		c0-0.494,0.099-1.085,0.099-1.774l0,0V38.734c0-1.479-0.099-2.365-0.295-2.759c-0.099-0.197-0.198-0.395-0.395-0.493
		c-0.197-0.099-0.395-0.197-0.69-0.296l0,0v-0.985h12.123c0.394,0,0.689-0.099,0.887-0.197c0.099,0,0.296-0.099,0.296-0.197
		c0.099-0.099,0.197-0.197,0.295-0.295l0,0l1.479,8.082l-0.69,0.098c-0.493-1.675-1.282-2.957-2.267-3.843
		c-0.493-0.395-1.084-0.789-1.675-0.986c-0.592-0.197-1.282-0.296-1.971-0.296c-0.691,0-1.184,0.197-1.479,0.493
		c-0.099,0.197-0.198,0.493-0.296,0.789c-0.099,0.394-0.099,0.887-0.099,1.478l0,0v2.365h1.479c0.886,0,1.577-0.197,1.873-0.591
		c0.099-0.197,0.296-0.493,0.394-0.789c0.099-0.395,0.198-0.789,0.198-1.282l0,0h0.493l1.183,8.969l-0.493,0.197
		c-0.395-1.479-0.789-2.563-1.38-3.154c-0.295-0.296-0.591-0.493-0.985-0.69c-0.395-0.098-0.886-0.197-1.379-0.197l0,0h-1.381v7.688
		c0,1.281,0.197,2.267,0.493,2.661c0.197,0.198,0.394,0.395,0.69,0.493s0.691,0.197,1.182,0.197c1.38,0,2.662-0.592,3.844-1.676
		c0.592-0.591,1.084-1.281,1.578-2.168c0.492-0.887,0.985-1.873,1.38-3.055l0,0l0.689,0.197l-2.267,9.56
		c-0.197-0.098-0.394-0.197-0.493-0.295c-0.295-0.099-0.492-0.099-0.887-0.099l0,0H51.395V57.46z"/>
	<path fill="#333092" d="M70.318,40.804c0-1.282-0.099-2.168-0.197-2.464c-0.099-0.197-0.198-0.295-0.296-0.493
		c-0.099-0.099-0.295-0.197-0.493-0.296l0,0v-0.887h7.983v0.887c-0.395,0.197-0.493,0.592-0.493,0.887
		c0,0.197,0.099,0.689,0.395,1.084l0,0l2.661,4.435v-3.153c0-1.282-0.099-2.168-0.198-2.464c-0.098-0.197-0.197-0.295-0.295-0.493
		c-0.099-0.099-0.295-0.197-0.493-0.296l0,0v-0.887h3.844v0.887c-0.395,0.099-0.69,0.296-0.788,0.689
		c-0.099,0.198-0.099,0.493-0.197,0.887c0,0.395-0.098,0.986-0.098,1.578l0,0v12.517c0,1.281,0.098,2.168,0.197,2.464
		c0.099,0.197,0.197,0.295,0.295,0.493c0.099,0.098,0.296,0.197,0.493,0.295l0,0v0.887h-4.139v-0.887
		c0.493,0,0.887-0.197,1.084-0.493c0.098-0.197,0.098-0.394,0.197-0.788c0-0.296,0.099-0.789,0.099-1.282l0,0v-0.689L72.19,40.508
		v12.32c0,1.478,0.099,2.365,0.296,2.858c0.099,0.197,0.197,0.394,0.395,0.493c0.197,0.098,0.394,0.197,0.69,0.197l0,0v0.887h-4.336
		v-0.887c0.394-0.099,0.689-0.296,0.788-0.69c0.099-0.197,0.099-0.493,0.197-0.887c0-0.394,0.099-0.986,0.099-1.577l0,0V40.804
		L70.318,40.804z"/>
	<path fill="#333092" d="M89.932,52.533v0.689c0,0.985,0.099,1.479,0.295,1.774c0.099,0.099,0.197,0.197,0.395,0.296
		c0.197,0,0.394,0.098,0.689,0.098c1.183,0,2.168-0.591,2.858-1.873c0.296-0.689,0.592-1.379,0.789-2.267
		c0.197-0.887,0.296-1.873,0.296-2.957c0-2.563-0.395-4.731-1.183-6.505c-0.395-0.887-0.789-1.577-1.281-1.972
		c-0.493-0.493-0.986-0.69-1.479-0.69c-0.394,0-0.689,0.197-0.887,0.493c-0.098,0.197-0.197,0.493-0.197,0.789
		c0,0.395-0.099,0.789-0.099,1.281l0,0v10.842H89.932z M84.51,57.46v-0.887c0.395-0.098,0.69-0.295,0.789-0.689
		c0.099-0.197,0.099-0.493,0.197-0.887c0-0.395,0.099-0.986,0.099-1.577l0,0V40.804c0-1.282-0.099-2.168-0.197-2.464
		c-0.099-0.197-0.099-0.295-0.296-0.493c-0.098-0.099-0.296-0.197-0.493-0.296l0,0v-0.887h6.604c1.084,0,1.971,0.197,2.858,0.493
		c0.395,0.197,0.887,0.394,1.183,0.69c0.394,0.296,0.788,0.591,1.084,0.985c0.985,1.084,1.873,2.464,2.464,4.14
		c0.296,0.788,0.493,1.675,0.69,2.563c0.099,0.887,0.197,1.873,0.197,2.76c0,1.379-0.197,2.563-0.493,3.745
		c-0.197,0.592-0.395,1.084-0.69,1.577c-0.296,0.493-0.493,0.986-0.887,1.38c-0.591,0.788-1.281,1.38-2.07,1.675
		c-0.394,0.197-0.788,0.295-1.282,0.395c-0.493,0.098-1.084,0.098-1.674,0.098l0,0H84.51V57.46z"/>
	<path fill="#333092" d="M101.068,57.46v-0.887c0.395-0.098,0.69-0.295,0.789-0.689c0.099-0.197,0.099-0.493,0.099-0.887
		c0-0.395,0.099-0.986,0.099-1.577l0,0V40.804c0-1.282-0.099-2.168-0.197-2.464c-0.099-0.197-0.197-0.295-0.296-0.493
		c-0.099-0.099-0.295-0.197-0.493-0.296l0,0v-0.887h9.758c0.296,0,0.591-0.099,0.789-0.197c0.295-0.098,0.394-0.296,0.492-0.493l0,0
		l1.183,7.096l-0.591,0.099c-0.395-1.479-0.985-2.661-1.774-3.352c-0.395-0.394-0.887-0.69-1.38-0.887
		c-0.493-0.197-0.986-0.295-1.577-0.295s-0.985,0.197-1.182,0.492c-0.099,0.197-0.197,0.395-0.197,0.69
		c-0.099,0.296-0.099,0.789-0.099,1.282l0,0v2.168h1.182c0.789,0,1.282-0.197,1.479-0.493c0.099-0.197,0.197-0.395,0.295-0.69
		c0.099-0.295,0.099-0.689,0.197-1.182l0,0h0.395l0.887,7.884l-0.395,0.197c-0.295-1.281-0.69-2.267-1.084-2.76
		c-0.197-0.295-0.492-0.492-0.788-0.591c-0.592-0.295-1.38-0.197-2.168-0.197l0,0v6.801c0,1.183,0.099,1.971,0.395,2.365
		c0.098,0.197,0.295,0.296,0.591,0.493c0.295,0.099,0.493,0.099,0.887,0.099c1.084,0,2.168-0.493,3.055-1.479
		c0.394-0.493,0.887-1.182,1.281-1.971c0.395-0.789,0.789-1.675,1.183-2.759l0,0l0.493,0.197l-1.775,8.477
		c-0.098-0.099-0.295-0.197-0.394-0.197c-0.197-0.099-0.395-0.099-0.69-0.099l0,0h-10.448V57.46z"/>
	<path fill="#333092" d="M119.006,39.522c0.099-0.296,0.099-0.591,0.099-0.887c0-0.493-0.099-0.69-0.591-0.986l0,0v-0.887h6.407
		v0.887c-0.395,0.197-0.592,0.591-0.592,0.986c0,0.098,0,0.295,0,0.394c0,0.197,0.098,0.395,0.098,0.591l0,0l3.154,13.897
		c0.296,1.282,0.591,2.169,0.789,2.563c0.295,0.395,0.591,0.591,0.887,0.591l0,0v0.887h-7.195v-0.887
		c0.395-0.099,0.69-0.295,0.789-0.591c0.098-0.099,0.098-0.296,0.197-0.493c0-0.197,0.099-0.394,0.099-0.69
		c0-1.38-0.494-2.563-1.38-3.548c-0.493-0.493-0.985-0.887-1.577-1.183s-1.183-0.493-1.971-0.493l0,0l-0.789,3.45
		c-0.099,0.394-0.197,0.788-0.197,1.183c0,0.197-0.099,0.295-0.099,0.493s0,0.296,0,0.395c0,0.493,0.099,0.887,0.296,1.084
		c0.099,0.099,0.197,0.197,0.395,0.295c0.099,0.099,0.296,0.099,0.493,0.099l0,0v0.887h-4.731v-0.887
		c0.493-0.197,0.887-0.492,1.183-0.887c0.099-0.197,0.295-0.591,0.493-1.083c0.197-0.494,0.394-1.085,0.493-1.873l0,0
		L119.006,39.522L119.006,39.522z M119.006,47.309c1.183,0.198,1.972,0.591,3.055,1.479l0,0l-1.576-7.491L119.006,47.309
		L119.006,47.309z"/>
	<path fill="#333092" d="M142.858,36.763v0.887c-0.394,0.099-0.689,0.493-0.985,1.084c-0.296,0.591-0.592,1.38-0.789,2.366
		c0,0.197-0.099,0.394-0.099,0.493c0,0.098-0.098,0.296-0.098,0.394l0,0l-2.957,12.321c-0.098,0.395-0.197,0.69-0.197,0.887
		c0,0.197-0.098,0.295-0.098,0.493s0.098,0.394,0.197,0.591c0,0.099,0.098,0.197,0.197,0.197s0.099,0.098,0.197,0.098l0,0v0.887
		h-5.519v-0.887c0.295-0.098,0.492-0.394,0.591-0.689c0-0.099,0-0.296,0-0.395s0-0.197-0.099-0.394c0-0.197-0.098-0.394-0.098-0.69
		c0-0.099,0-0.198-0.099-0.296c0-0.099,0-0.198-0.098-0.296l0,0l-2.958-13.207c-0.295-1.084-0.493-1.873-0.689-2.267
		c-0.099-0.197-0.197-0.295-0.395-0.493c-0.099-0.099-0.295-0.197-0.492-0.296l0,0v-0.887h6.702v0.887
		c-0.296,0.099-0.493,0.296-0.591,0.592c-0.197,0.295-0.197,0.591-0.197,0.985c0,0.197,0,0.493,0.098,0.887
		c0.099,0.493,0.198,0.986,0.296,1.479l0,0l1.971,9.067l2.07-9.166c0.099-0.69,0.296-1.183,0.296-1.578
		c0-0.197,0.099-0.394,0.099-0.493s0-0.197,0-0.296c0-0.394-0.099-0.789-0.198-0.985c-0.098-0.099-0.197-0.197-0.296-0.296
		c-0.098-0.099-0.295-0.197-0.493-0.197l0,0v-0.887h4.731V36.763z"/>
	<path fill="#333092" d="M150.053,38.931c-0.887,0-1.578,0.591-2.07,1.774c-0.296,0.591-0.394,1.28-0.591,2.069
		c-0.099,0.789-0.197,1.675-0.197,2.76c0,2.957,0.295,5.224,0.887,6.998c0.295,0.887,0.69,1.577,1.085,1.971
		c0.394,0.395,0.788,0.69,1.281,0.69c0.887,0,1.577-0.592,2.069-1.774c0.296-0.591,0.395-1.281,0.592-2.07
		c0.099-0.789,0.197-1.676,0.197-2.76c0-2.957-0.295-5.223-0.887-6.998c-0.296-0.887-0.69-1.577-1.084-1.972
		C150.94,39.128,150.546,38.931,150.053,38.931L150.053,38.931z M142.661,47.112c0-3.056,0.69-5.618,2.168-7.688
		c0.69-1.084,1.577-1.774,2.464-2.365c0.887-0.493,1.873-0.788,2.957-0.788c2.168,0,3.943,0.985,5.421,3.055
		c0.789,0.986,1.281,2.168,1.675,3.45c0.395,1.281,0.493,2.661,0.493,4.238c0,3.055-0.69,5.618-2.168,7.688
		c-0.69,0.985-1.577,1.774-2.464,2.365c-0.888,0.493-1.873,0.788-2.957,0.788c-2.168,0-3.942-0.986-5.421-3.055
		c-0.69-0.986-1.281-2.168-1.576-3.45C142.858,50.068,142.661,48.59,142.661,47.112L142.661,47.112z"/>
	<path fill="#333092" d="M171.44,46.421c0,0.099,0,0.197,0,0.296c0,0.887,0.098,1.577,0.098,2.168s0,1.084,0,1.479
		c0,2.563-0.492,4.435-1.577,5.618c-0.493,0.591-1.183,1.084-1.971,1.38c-0.788,0.296-1.676,0.493-2.759,0.493
		c-1.972,0-3.45-0.493-4.238-1.577c-0.395-0.493-0.789-1.183-0.986-2.07c-0.197-0.887-0.296-1.872-0.296-3.055
		c0-0.099,0-0.197,0-0.394c0-0.197,0-0.493,0-0.789c0-0.197,0-0.493,0-0.592c0-0.197,0-0.394,0-0.492
		c0.099-2.76,0.197-5.519,0.197-8.279c0-1.183-0.099-1.971-0.295-2.366c-0.099-0.196-0.198-0.295-0.395-0.394
		c-0.197-0.099-0.394-0.197-0.689-0.197l0,0v-0.887h7.096v0.887c-0.591,0.099-0.986,0.493-1.183,1.084
		c-0.099,0.295-0.197,0.789-0.296,1.38c-0.098,0.592-0.098,1.282-0.098,2.168l0,0l-0.099,6.407c0,0.296,0,0.591,0,0.985
		c0,0.197,0,0.296,0,0.592c0,0.197,0,0.493,0,0.689c0,1.479,0.197,2.563,0.69,3.352c0.198,0.395,0.494,0.591,0.888,0.789
		c0.394,0.197,0.788,0.295,1.28,0.295c0.986,0,1.676-0.394,2.168-1.281c0.197-0.395,0.395-0.986,0.493-1.675
		c0.099-0.69,0.197-1.577,0.197-2.464c0-0.296,0-0.592,0-0.789c-0.099-1.971-0.099-3.843-0.197-5.716
		c-0.098-2.168-0.295-3.647-0.493-4.436c-0.098-0.394-0.295-0.689-0.492-0.886c-0.197-0.197-0.493-0.296-0.789-0.395l0,0v-0.887
		h5.027v0.887c-0.493,0.099-0.887,0.395-1.183,0.788c-0.098,0.197-0.197,0.493-0.295,0.789c-0.099,0.295-0.099,0.69-0.099,1.084
		c0,0.592,0,0.887,0,1.281l0,0L171.44,46.421L171.44,46.421z"/>
	<path fill="#333092" d="M173.806,57.46v-0.887c0.394-0.098,0.69-0.295,0.789-0.689c0.098-0.197,0.098-0.493,0.197-0.887
		c0-0.395,0-0.986,0-1.577l0,0V40.804c0-1.282-0.099-2.168-0.197-2.464c-0.099-0.197-0.198-0.295-0.296-0.493
		c-0.099-0.099-0.296-0.197-0.493-0.296l0,0v-0.887h9.955c1.083,0,1.774,0.295,2.365,0.788c0.197,0.296,0.394,0.592,0.592,1.084
		c0.098,0.395,0.197,0.887,0.197,1.479c0,0.986-0.197,1.873-0.592,2.661c-0.197,0.395-0.493,0.789-0.887,1.183
		c-0.394,0.395-0.788,0.887-1.38,1.38c0.592,0.985,1.084,2.069,1.676,3.351c0.295,0.69,0.493,1.38,0.789,2.168
		c0.296,0.887,0.494,1.774,0.789,2.759c0.296,0.888,0.492,1.578,0.788,2.07s0.493,0.789,0.789,0.789l0,0v0.887h-6.603v-0.887
		c0.295-0.197,0.493-0.395,0.591-0.592c0.098-0.197,0.098-0.492,0.098-0.689c0-0.789-0.295-2.07-0.788-3.548
		c-0.296-0.789-0.592-1.479-0.986-2.169c-0.394-0.689-0.689-1.379-1.182-1.971l0,0l-0.789,0.395v5.519
		c0,1.281,0.099,2.168,0.198,2.464c0.098,0.197,0.197,0.296,0.296,0.493c0.099,0.099,0.295,0.197,0.493,0.295l0,0v0.887H173.806
		L173.806,57.46z M179.227,45.535c1.084-0.295,1.873-0.887,2.464-1.676c0.296-0.394,0.493-0.788,0.69-1.281
		c0.099-0.493,0.197-0.985,0.197-1.478c0-0.789-0.197-1.38-0.493-1.774c-0.098-0.197-0.296-0.296-0.592-0.394
		c-0.197-0.099-0.493-0.099-0.789-0.099c-0.492,0-0.886,0.099-1.182,0.295c-0.098,0.099-0.197,0.296-0.197,0.493
		c0,0.197-0.099,0.592-0.099,0.888l0,0V45.535L179.227,45.535z"/>
	<polygon opacity="0.92" fill="#009EFF" enable-background="new    " points="57.308,81.608 49.521,59.432 189.477,59.432 
		189.28,81.608 	"/>
	<g>
		<path fill="#FFFFFF" d="M63.518,64.951l5.125,8.97h-1.479l-1.183-2.169h-4.928l-1.182,2.169h-1.479L63.518,64.951z M63.518,67.316
			l-1.873,3.45h3.844L63.518,67.316z"/>
		<path fill="#FFFFFF" d="M69.53,65.345h1.38v8.575h-1.38V65.345z"/>
		<path fill="#FFFFFF" d="M72.881,65.345h1.872c1.282,0,2.168,0.197,2.662,0.493c0.789,0.493,1.182,1.084,1.281,1.971
			c0,0.296-0.099,0.592-0.197,0.888c-0.099,0.296-0.295,0.493-0.591,0.789c-0.197,0.197-0.493,0.394-0.789,0.493
			s-0.69,0.197-0.986,0.295l3.351,3.746h-1.577l-3.154-3.646h-0.591v3.548h-1.38v-8.575H72.881z M74.162,66.233v3.153
			c0.788,0,1.379,0,1.774-0.098c0.493-0.099,0.788-0.198,1.084-0.494c0.197-0.196,0.395-0.591,0.395-0.986
			c0-0.394-0.197-0.788-0.69-1.083c-0.394-0.296-1.183-0.394-2.168-0.394h-0.394V66.233z"/>
		<path fill="#FFFFFF" d="M92.494,72.244v1.282c-0.887,0.395-1.774,0.591-2.76,0.591c-0.789,0-1.478-0.099-2.168-0.295
			c-0.69-0.197-1.282-0.592-1.774-0.986c-0.493-0.394-0.986-0.887-1.282-1.478c-0.295-0.591-0.493-1.183-0.493-1.774
			c0.099-0.985,0.395-1.873,1.084-2.562c0.69-0.69,1.38-1.084,2.267-1.38s1.577-0.395,2.365-0.395c0.591,0,1.084,0,1.479,0.099
			c0.394,0.099,0.887,0.197,1.281,0.394v1.282c-0.789-0.592-1.774-0.887-2.858-0.887c-0.591,0-1.084,0.099-1.577,0.295
			c-0.493,0.197-0.986,0.493-1.38,0.789c-0.395,0.295-0.69,0.689-0.887,1.084c-0.197,0.394-0.295,0.788-0.295,1.281
			c0,0.493,0.099,0.986,0.295,1.479c0.197,0.493,0.492,0.788,0.887,1.182c0.395,0.296,0.887,0.591,1.38,0.789
			c0.493,0.197,1.084,0.295,1.577,0.295C90.622,73.131,91.607,72.835,92.494,72.244z"/>
		<path fill="#FFFFFF" d="M98.901,65.148c0.788,0,1.478,0.099,2.167,0.394c0.69,0.197,1.282,0.592,1.774,0.986
			c0.493,0.394,0.887,0.886,1.183,1.478s0.395,1.084,0.395,1.774c0,0.789-0.296,1.577-0.789,2.267
			c-0.493,0.69-1.183,1.282-2.07,1.676c-0.887,0.394-1.773,0.591-2.858,0.591c-0.985,0-1.971-0.197-2.759-0.591
			c-0.887-0.395-1.577-0.986-2.07-1.676c-0.493-0.689-0.789-1.478-0.789-2.267c0-0.788,0.295-1.577,0.789-2.267
			c0.493-0.689,1.184-1.28,2.07-1.675C96.929,65.345,97.915,65.148,98.901,65.148z M98.901,66.134c-0.79,0-1.479,0.197-2.169,0.493
			c-0.69,0.296-1.183,0.788-1.577,1.281c-0.394,0.493-0.592,1.085-0.592,1.774c0,0.591,0.198,1.183,0.592,1.774
			c0.394,0.591,0.887,0.986,1.577,1.282c0.69,0.296,1.379,0.493,2.169,0.493c0.788,0,1.478-0.197,2.167-0.493
			c0.69-0.295,1.183-0.69,1.577-1.282c0.395-0.591,0.591-1.083,0.591-1.774c0-0.591-0.197-1.183-0.591-1.774
			c-0.394-0.493-0.887-0.985-1.577-1.281C100.378,66.233,99.689,66.134,98.901,66.134z"/>
		<path fill="#FFFFFF" d="M105.701,64.852l8.082,6.801v-6.406h1.38v8.969l-8.082-6.801v6.506h-1.38V64.852z"/>
		<path fill="#FFFFFF" d="M116.838,65.345h2.267c0.69,0,1.38,0.099,2.07,0.197c0.689,0.099,1.379,0.395,1.872,0.691
			c0.592,0.295,1.084,0.788,1.38,1.28c0.395,0.591,0.591,1.183,0.591,1.972c0,0.591-0.098,1.183-0.295,1.675
			c-0.197,0.493-0.592,0.986-1.084,1.38c-0.493,0.394-1.084,0.789-1.873,0.986c-0.789,0.197-1.676,0.395-2.662,0.395h-2.365v-8.575
			H116.838z M118.218,66.331v6.603h0.788c0.986,0,1.873-0.099,2.563-0.394c0.689-0.296,1.281-0.69,1.577-1.183
			c0.394-0.493,0.493-1.084,0.493-1.774c0-0.493-0.099-0.985-0.296-1.38c-0.197-0.395-0.493-0.789-0.986-1.083
			c-0.394-0.295-0.886-0.493-1.576-0.69c-0.592-0.098-1.282-0.196-2.07-0.196h-0.493V66.331z"/>
		<path fill="#FFFFFF" d="M126.398,65.345h1.38v8.575h-1.38V65.345z"/>
		<path fill="#FFFFFF" d="M131.326,66.331h-2.562v-0.986h6.406v0.986h-2.562v7.589h-1.282V66.331z"/>
		<path fill="#FFFFFF" d="M136.156,65.345h1.379v8.575h-1.379V65.345z"/>
		<path fill="#FFFFFF" d="M144.336,65.148c0.788,0,1.478,0.099,2.169,0.394c0.689,0.197,1.28,0.592,1.773,0.986
			c0.493,0.394,0.888,0.886,1.183,1.478s0.394,1.084,0.394,1.774c0,0.789-0.296,1.577-0.789,2.267
			c-0.493,0.69-1.183,1.282-2.069,1.676c-0.888,0.394-1.775,0.591-2.859,0.591c-0.985,0-1.971-0.197-2.76-0.591
			c-0.887-0.395-1.576-0.986-2.069-1.676c-0.493-0.689-0.789-1.478-0.789-2.267c0-0.788,0.296-1.577,0.789-2.267
			c0.493-0.689,1.182-1.28,2.069-1.675C142.464,65.345,143.351,65.148,144.336,65.148z M144.336,66.134
			c-0.788,0-1.479,0.197-2.168,0.493c-0.69,0.296-1.184,0.788-1.577,1.281C140.197,68.4,140,68.992,140,69.682
			c0,0.591,0.197,1.183,0.591,1.774c0.394,0.493,0.887,0.986,1.577,1.282c0.689,0.296,1.38,0.493,2.168,0.493
			s1.478-0.197,2.169-0.493c0.689-0.295,1.182-0.69,1.576-1.282c0.394-0.591,0.591-1.083,0.591-1.774
			c0-0.591-0.197-1.183-0.591-1.774c-0.395-0.493-0.887-0.985-1.576-1.281C145.814,66.233,145.125,66.134,144.336,66.134z"/>
		<path fill="#FFFFFF" d="M151.137,64.852l8.082,6.801v-6.406h1.38v8.969l-8.082-6.801v6.506h-1.28v-9.068H151.137z"/>
		<path fill="#FFFFFF" d="M162.373,65.345h1.38v8.575h-1.38V65.345z"/>
		<path fill="#FFFFFF" d="M165.625,64.852l8.082,6.801v-6.406h1.38v8.969l-8.082-6.801v6.506h-1.28v-9.068H165.625z"/>
		<path fill="#FFFFFF" d="M182.479,69.583h4.238v0.395c0,0.591-0.099,1.182-0.395,1.675s-0.591,0.985-1.084,1.281
			c-0.493,0.395-0.986,0.69-1.577,0.888c-0.591,0.197-1.281,0.295-1.873,0.295c-0.197,0-0.296,0-0.394,0
			c-0.887-0.099-1.577-0.197-2.267-0.591c-0.69-0.296-1.183-0.69-1.577-1.183c-0.395-0.493-0.69-0.887-0.887-1.478
			c-0.197-0.493-0.296-0.986-0.296-1.38c0.099-0.789,0.296-1.479,0.689-2.07c0.394-0.59,0.887-1.083,1.38-1.379
			c0.592-0.296,1.084-0.591,1.676-0.789c0.591-0.197,1.083-0.197,1.577-0.197c0.887,0,1.675,0.099,2.365,0.296
			c0.69,0.197,1.479,0.69,2.169,1.281l-0.986,0.689c-0.395-0.394-0.887-0.788-1.379-0.985c-0.494-0.296-1.282-0.394-2.07-0.394
			c-0.69,0-1.281,0.098-1.971,0.394c-0.69,0.295-1.184,0.69-1.578,1.182c-0.394,0.493-0.591,1.085-0.689,1.775c0,0,0,0,0,0.098
			c0,0.69,0.197,1.282,0.591,1.873c0.395,0.493,0.888,0.985,1.479,1.281c0.592,0.295,1.183,0.493,1.872,0.493
			c0.592,0,1.183-0.099,1.774-0.296c0.592-0.197,0.985-0.493,1.38-0.887c0.394-0.395,0.591-0.788,0.591-1.281h-2.759V69.583
			L182.479,69.583z"/>
	</g>
</g>
</svg>
